<mxfile host="65bd71144e">
    <diagram id="jQDRxRcEZ57X8LE0vhkp" name="Page-1">
        <mxGraphModel dx="894" dy="326" grid="1" gridSize="10" guides="1" tooltips="1" connect="1" arrows="1" fold="1" page="1" pageScale="1" pageWidth="827" pageHeight="1169" background="none" math="0" shadow="0">
            <root>
                <mxCell id="0"/>
                <mxCell id="1" parent="0"/>
                <mxCell id="4" value="time" style="shape=flexArrow;endArrow=classic;html=1;fillColor=#f5f5f5;strokeColor=#666666;fontSize=19;sketch=1;curveFitting=1;jiggle=2;" edge="1" parent="1">
                    <mxGeometry width="50" height="50" relative="1" as="geometry">
                        <mxPoint x="120" y="80" as="sourcePoint"/>
                        <mxPoint x="650" y="80" as="targetPoint"/>
                    </mxGeometry>
                </mxCell>
                <mxCell id="5" value="AI work" style="rounded=0;whiteSpace=wrap;html=1;fontSize=19;fillColor=#dae8fc;strokeColor=#6c8ebf;sketch=1;curveFitting=1;jiggle=2;" vertex="1" parent="1">
                    <mxGeometry x="120" y="100" width="120" height="40" as="geometry"/>
                </mxCell>
                <mxCell id="hNWBGzLs28TzabvGlII9-9" value="my process" style="ellipse;whiteSpace=wrap;html=1;aspect=fixed;fontSize=19;sketch=1;curveFitting=1;jiggle=2;" vertex="1" parent="1">
                    <mxGeometry x="20" y="100" width="90" height="90" as="geometry"/>
                </mxCell>
                <mxCell id="hNWBGzLs28TzabvGlII9-13" value="" style="group;sketch=1;curveFitting=1;jiggle=2;" vertex="1" connectable="0" parent="1">
                    <mxGeometry x="120" y="420" width="450" height="60" as="geometry"/>
                </mxCell>
                <mxCell id="hNWBGzLs28TzabvGlII9-5" value="start http" style="rounded=0;whiteSpace=wrap;html=1;fontSize=19;fillColor=#dae8fc;strokeColor=#6c8ebf;sketch=1;curveFitting=1;jiggle=2;" vertex="1" parent="hNWBGzLs28TzabvGlII9-13">
                    <mxGeometry width="80" height="60" as="geometry"/>
                </mxCell>
                <mxCell id="hNWBGzLs28TzabvGlII9-6" value="wait for result" style="rounded=0;whiteSpace=wrap;html=1;fontSize=19;fontStyle=2;sketch=1;curveFitting=1;jiggle=2;" vertex="1" parent="hNWBGzLs28TzabvGlII9-13">
                    <mxGeometry x="80" width="280" height="60" as="geometry"/>
                </mxCell>
                <mxCell id="hNWBGzLs28TzabvGlII9-7" value="process result" style="rounded=0;whiteSpace=wrap;html=1;fontSize=19;fillColor=#dae8fc;strokeColor=#6c8ebf;sketch=1;curveFitting=1;jiggle=2;" vertex="1" parent="hNWBGzLs28TzabvGlII9-13">
                    <mxGeometry x="360" width="90" height="60" as="geometry"/>
                </mxCell>
                <mxCell id="hNWBGzLs28TzabvGlII9-14" value="" style="group;sketch=1;curveFitting=1;jiggle=2;" vertex="1" connectable="0" parent="1">
                    <mxGeometry x="120" y="540" width="120" height="40" as="geometry"/>
                </mxCell>
                <mxCell id="hNWBGzLs28TzabvGlII9-10" value="AI work" style="rounded=0;whiteSpace=wrap;html=1;fontSize=19;fontStyle=2;sketch=1;curveFitting=1;jiggle=2;" vertex="1" parent="hNWBGzLs28TzabvGlII9-14">
                    <mxGeometry width="120" height="40" as="geometry"/>
                </mxCell>
                <mxCell id="hNWBGzLs28TzabvGlII9-11" value="" style="rounded=0;whiteSpace=wrap;html=1;fontSize=19;fillColor=#dae8fc;strokeColor=#6c8ebf;sketch=1;curveFitting=1;jiggle=2;" vertex="1" parent="hNWBGzLs28TzabvGlII9-14">
                    <mxGeometry width="20" height="40" as="geometry"/>
                </mxCell>
                <mxCell id="hNWBGzLs28TzabvGlII9-12" value="" style="rounded=0;whiteSpace=wrap;html=1;fontSize=19;fillColor=#dae8fc;strokeColor=#6c8ebf;sketch=1;curveFitting=1;jiggle=2;" vertex="1" parent="hNWBGzLs28TzabvGlII9-14">
                    <mxGeometry x="100" width="20" height="40" as="geometry"/>
                </mxCell>
                <mxCell id="hNWBGzLs28TzabvGlII9-15" value="CPU Core" style="shape=hexagon;perimeter=hexagonPerimeter2;whiteSpace=wrap;html=1;fixedSize=1;fontSize=15;fontStyle=1;sketch=1;curveFitting=1;jiggle=2;" vertex="1" parent="1">
                    <mxGeometry x="50" y="220" width="70" height="50" as="geometry"/>
                </mxCell>
                <mxCell id="hNWBGzLs28TzabvGlII9-18" value="How much work can my process do in &quot;time&quot;?" style="text;html=1;align=center;verticalAlign=middle;whiteSpace=wrap;rounded=0;fontSize=24;labelBackgroundColor=default;sketch=1;curveFitting=1;jiggle=2;" vertex="1" parent="1">
                    <mxGeometry x="110" y="30" width="530" height="30" as="geometry"/>
                </mxCell>
            </root>
        </mxGraphModel>
    </diagram>
    <diagram id="9ZTX-xoFHpepIMoeKPHg" name="Page-2">
        <mxGraphModel dx="907" dy="480" grid="1" gridSize="10" guides="1" tooltips="1" connect="1" arrows="1" fold="1" page="1" pageScale="1" pageWidth="827" pageHeight="1169" math="0" shadow="0">
            <root>
                <mxCell id="0"/>
                <mxCell id="1" parent="0"/>
            </root>
        </mxGraphModel>
    </diagram>
    <diagram id="M3cbb_wZGVckkHJQSWHl" name="Page-3">
        <mxGraphModel dx="206" dy="93" grid="1" gridSize="10" guides="1" tooltips="1" connect="1" arrows="1" fold="1" page="1" pageScale="1" pageWidth="827" pageHeight="1169" math="0" shadow="0">
            <root>
                <mxCell id="0"/>
                <mxCell id="1" parent="0"/>
                <mxCell id="06U0okOjMT07u_jO-NAI-1" value="Time Keeping" style="text;html=1;strokeColor=none;fillColor=none;align=center;verticalAlign=middle;whiteSpace=wrap;rounded=0;sketch=1;hachureGap=4;jiggle=2;curveFitting=1;fontFamily=Architects Daughter;fontSource=https%3A%2F%2Ffonts.googleapis.com%2Fcss%3Ffamily%3DArchitects%2BDaughter;fontSize=20;" vertex="1" parent="1">
                    <mxGeometry x="290" y="80" width="290" height="30" as="geometry"/>
                </mxCell>
                <mxCell id="06U0okOjMT07u_jO-NAI-2" value="Do it!" style="text;html=1;strokeColor=none;fillColor=none;align=center;verticalAlign=middle;whiteSpace=wrap;rounded=0;sketch=1;hachureGap=4;jiggle=2;curveFitting=1;fontFamily=Architects Daughter;fontSource=https%3A%2F%2Ffonts.googleapis.com%2Fcss%3Ffamily%3DArchitects%2BDaughter;fontSize=20;" vertex="1" parent="1">
                    <mxGeometry x="290" y="150" width="290" height="30" as="geometry"/>
                </mxCell>
                <mxCell id="06U0okOjMT07u_jO-NAI-3" value="Have a good lunch" style="text;html=1;strokeColor=none;fillColor=none;align=center;verticalAlign=middle;whiteSpace=wrap;rounded=0;sketch=1;hachureGap=4;jiggle=2;curveFitting=1;fontFamily=Architects Daughter;fontSource=https%3A%2F%2Ffonts.googleapis.com%2Fcss%3Ffamily%3DArchitects%2BDaughter;fontSize=20;" vertex="1" parent="1">
                    <mxGeometry x="290" y="220" width="290" height="30" as="geometry"/>
                </mxCell>
                <mxCell id="06U0okOjMT07u_jO-NAI-4" value="Topic of today" style="text;html=1;strokeColor=none;fillColor=none;align=center;verticalAlign=middle;whiteSpace=wrap;rounded=0;sketch=1;hachureGap=4;jiggle=2;curveFitting=1;fontFamily=Architects Daughter;fontSource=https%3A%2F%2Ffonts.googleapis.com%2Fcss%3Ffamily%3DArchitects%2BDaughter;fontSize=20;" vertex="1" parent="1">
                    <mxGeometry x="360" y="20" width="160" height="30" as="geometry"/>
                </mxCell>
            </root>
        </mxGraphModel>
    </diagram>
</mxfile>